<svg xmlns="http://www.w3.org/2000/svg" viewBox="0 0 200 200" width="200" height="200">
  <defs>
    <linearGradient id="orangeGradient" x1="0%" y1="0%" x2="100%" y2="100%">
      <stop offset="0%" style="stop-color:#FF6B35;stop-opacity:1" />
      <stop offset="100%" style="stop-color:#FF8C42;stop-opacity:1" />
    </linearGradient>
  </defs>
  
  <!-- Outer Gear -->
  <path d="M100,40 L110,50 L120,40 L120,60 L130,60 L130,50 L140,60 L140,80 L150,80 L150,70 L160,80 L160,100 L150,100 L160,110 L160,120 L150,120 L150,130 L140,130 L140,120 L130,130 L120,130 L120,140 L110,130 L100,140 L90,130 L80,140 L80,130 L70,130 L60,120 L60,130 L50,120 L50,110 L40,100 L50,100 L40,90 L40,80 L50,80 L50,70 L60,80 L60,60 L70,60 L70,50 L80,60 L80,40 L90,50 Z" 
        fill="url(#orangeGradient)" stroke="#fff" stroke-width="2"/>
  
  <!-- Robot Head Center -->
  <rect x="75" y="75" width="50" height="50" rx="5" fill="#1a1a1a" stroke="#FF6B35" stroke-width="3"/>
  
  <!-- Eyes -->
  <circle cx="87" cy="90" r="6" fill="#FF6B35"/>
  <circle cx="113" cy="90" r="6" fill="#FF6B35"/>
  
  <!-- Circuit Pattern -->
  <line x1="85" y1="105" x2="95" y2="105" stroke="#FF6B35" stroke-width="2.5"/>
  <line x1="105" y1="105" x2="115" y2="105" stroke="#FF6B35" stroke-width="2.5"/>
  <circle cx="100" cy="105" r="3" fill="#FF8C42"/>
  
  <!-- Antenna accent -->
  <line x1="100" y1="75" x2="100" y2="65" stroke="#FF6B35" stroke-width="3"/>
  <circle cx="100" cy="62" r="4" fill="#FF8C42"/>
  
  <!-- Text JL -->
  <text x="100" y="118" font-family="Arial, sans-serif" font-size="16" font-weight="bold" fill="#fff" text-anchor="middle">JL</text>
</svg>
